<?xml version="1.0" standalone="no"?><!DOCTYPE svg PUBLIC "-//W3C//DTD SVG 1.1//EN" "http://www.w3.org/Graphics/SVG/1.1/DTD/svg11.dtd"><svg t="1542003954089" class="icon" style="" viewBox="0 0 1024 1024" version="1.1" xmlns="http://www.w3.org/2000/svg" p-id="1523" xmlns:xlink="http://www.w3.org/1999/xlink" width="64" height="64"><defs><style type="text/css"></style></defs><path d="M872.795304 872.795304c199.380884-199.372821 199.380884-523.882788 0-723.255609-199.372821-199.380884-523.882788-199.380884-723.255609 0-199.380884 199.372821-199.380884 523.882788 0 723.255609 199.372821 199.380884 523.882788 199.380884 723.255609 0zM185.613379 185.613379C365.175507 6.051252 657.151429 6.051252 836.721619 185.613379c179.562128 179.562128 179.562128 471.538049 0 651.10824-179.562128 179.562128-471.538049 179.562128-651.10824 0C6.051252 657.159491 6.260889 365.175507 185.613379 185.613379z m325.558152 517.005083c7.087342 0 13.344199-2.918792 18.141661-7.506616 4.587824-4.595887 7.506616-11.046256 7.506616-18.141661V536.610171h140.360014c7.087342 0 13.344199-2.918792 18.141661-7.506616 4.587824-4.595887 7.506616-11.046256 7.506616-18.141661 0-14.19081-11.473593-25.65634-25.446703-25.446703H537.029445V345.16324c0-14.19081-11.473593-25.65634-25.446703-25.446703-14.182747 0-25.648277 11.473593-25.43864 25.446703v140.351951H345.784087c-14.182747 0-25.648277 11.473593-25.43864 25.446703 0 14.182747 11.46553 25.648277 25.43864 25.43864h140.360015v140.360014c-0.628911 14.392384 10.844682 25.857914 25.027429 25.857914z" fill="#20A0FF" p-id="1524"></path></svg>